<svg viewBox="0 0 48 48" fill="none" xmlns="http://www.w3.org/2000/svg">
  <!-- fundo de estúdio + estrela — categoria blog: cenários temáticos -->
  <path d="M16.5 12.5h17v20.2c-3 2.5-6 3.6-8.6 3.6-2.6 0-5.6-1.1-8.4-3.5z" fill="#DFDCC6"/>
  <path d="M8.5 10.5c10.3-1.4 20.7-1.4 31 0" stroke="#35331F" stroke-width="2.2" stroke-linecap="round"/>
  <path d="M11 10.2V42M37 10.2V42" stroke="#35331F" stroke-width="2.2" stroke-linecap="round"/>
  <path d="M15 11v20.7c2.8 2.4 5.9 3.6 8.5 3.6 2.6 0 5.7-1.2 8.7-3.7V11" stroke="#35331F" stroke-width="2.2" stroke-linecap="round" stroke-linejoin="round"/>
  <path d="M23.7 17.8l1.5 3.2 3.4.4-2.5 2.4.7 3.4-3.1-1.7-3 1.7.6-3.4-2.5-2.4 3.4-.4z" fill="#B06F5E" stroke="#35331F" stroke-width="1.5" stroke-linejoin="round"/>
</svg>
