<svg viewBox="0 0 48 48" fill="none" xmlns="http://www.w3.org/2000/svg">
  <!-- lâmpada com raminho — categoria blog: dicas -->
  <path d="M25.5 9.5c6 .3 10 4.9 9.8 10.3-.1 3.4-1.8 5.8-3.6 8-1.2 1.4-2 2.7-2.4 4.4h-8.2c-.4-1.7-1.3-3-2.5-4.5-1.8-2.1-3.4-4.5-3.3-7.9.2-5.5 4.5-10.5 10.2-10.3z" fill="#DFDCC6"/>
  <path d="M24 8c6 .3 10 4.9 9.8 10.3-.1 3.4-1.8 5.8-3.6 8-1.2 1.4-2 2.7-2.4 4.4h-8.2c-.4-1.7-1.3-3-2.5-4.5-1.8-2.1-3.4-4.5-3.3-7.9C14 12.8 18.3 7.8 24 8z" stroke="#35331F" stroke-width="2.2" stroke-linecap="round" stroke-linejoin="round"/>
  <path d="M20.5 35h7M21.3 38.6h5.4M22.6 42h2.8" stroke="#35331F" stroke-width="2" stroke-linecap="round"/>
  <path d="M24 30.5c-.3-4 .5-7.5 2.5-10.5" stroke="#35331F" stroke-width="1.8" stroke-linecap="round"/>
  <path d="M26 21.5c-.2-2 .6-3.6 2.4-4.6.5 2-.2 3.7-2.4 4.6zM23.2 25.6c-2-.2-3.4-1.3-4-3.3 2-.2 3.5.9 4 3.3z" fill="#B06F5E"/>
</svg>
