<svg viewBox="0 0 48 48" fill="none" xmlns="http://www.w3.org/2000/svg">
  <!-- perfil gestante — categoria portfolio: gestante -->
  <path d="M24.5 24.5c4.5 2.5 7 6 6.2 9.7-.7 3.3-3.2 5.8-6.5 6.8-.8-3-.8-7-.2-10.5.3-2.1.5-4.1.5-6z" fill="#E3BCAE"/>
  <circle cx="21.5" cy="10.5" r="4.7" stroke="#35331F" stroke-width="2.2"/>
  <path d="M18.5 16.5c-2.8 4.6-3.4 10.6-3 16.2.3 4.3 1.3 7.6 2.5 9.8" stroke="#35331F" stroke-width="2.2" stroke-linecap="round"/>
  <path d="M23.7 16.8c.9 2.4.5 4-.4 6 5.3 2.6 8.5 6.4 7.5 10.7-.9 4-4.2 7.1-8.4 8.3-1.5.4-3 .6-4.4.5" stroke="#35331F" stroke-width="2.2" stroke-linecap="round" stroke-linejoin="round"/>
  <path d="M26.4 31c-1.6-1.2-2.6-2.3-2.6-3.6 0-1 .8-1.7 1.6-1.7.6 0 1 .3 1.3.8.2-.5.7-.8 1.3-.8.8 0 1.6.7 1.6 1.7 0 1.3-1.2 2.4-3.2 3.6z" fill="#6B2414"/>
</svg>
