<svg viewBox="0 0 48 48" fill="none" xmlns="http://www.w3.org/2000/svg">
  <!-- coração mãe + coração bebê — categoria portfolio: dia das mães -->
  <path d="M23.5 39.5c-8.6-6.6-14-12.2-13.9-19 0-5 3.7-8.4 7.9-8.4 2.8 0 5.2 1.6 6.3 3.7 1.1-2.1 3.5-3.7 6.3-3.7 4.3 0 8 3.4 7.9 8.5 0 2.4-.8 4.7-2.2 6.9" fill="#DFDCC6"/>
  <path d="M22 38c-8.6-6.6-14-12.2-13.9-19 0-5 3.7-8.4 7.9-8.4 2.8 0 5.2 1.6 6.3 3.7 1.1-2.1 3.5-3.7 6.3-3.7 4.3 0 8 3.4 7.9 8.5 0 2.4-.8 4.7-2.2 6.9" stroke="#35331F" stroke-width="2.2" stroke-linecap="round" stroke-linejoin="round"/>
  <path d="M33.8 42.6c-4.3-3.3-7-6.1-7-9.5 0-2.5 1.9-4.2 4-4.2 1.4 0 2.6.8 3.1 1.9.6-1.1 1.8-1.9 3.2-1.9 2.1 0 3.9 1.7 3.9 4.3 0 3.4-2.9 6.1-7.2 9.4z" fill="#E3BCAE" stroke="#35331F" stroke-width="2" stroke-linecap="round" stroke-linejoin="round"/>
</svg>
