<svg viewBox="0 0 48 48" fill="none" xmlns="http://www.w3.org/2000/svg">
  <!-- corações entrelaçados — categoria portfolio: casal -->
  <path d="M20 36.5c-6.8-5.2-11-9.6-11-14.9 0-4 2.9-6.7 6.2-6.7 2.2 0 4.1 1.2 5 3 .9-1.8 2.8-3 5-3 3.4 0 6.3 2.7 6.2 6.8 0 5.2-4.6 9.6-11.4 14.8z" fill="#DFDCC6" stroke="#35331F" stroke-width="2.2" stroke-linecap="round" stroke-linejoin="round"/>
  <path d="M29.6 41.4c-5.5-4.3-9-7.9-9-12.2 0-3.3 2.4-5.5 5.1-5.5 1.8 0 3.4 1 4.1 2.4.7-1.4 2.3-2.4 4.1-2.4 2.8 0 5.2 2.2 5.1 5.6 0 4.3-3.8 7.9-9.4 12.1z" fill="#E3BCAE" stroke="#35331F" stroke-width="2.2" stroke-linecap="round" stroke-linejoin="round"/>
</svg>
