<svg viewBox="0 0 48 48" fill="none" xmlns="http://www.w3.org/2000/svg">
  <!-- lábios — categoria portfolio: sensual intimista -->
  <path d="M10 23.5Q12 19 16.5 18.5Q21 18 24 21Q27 18 31.5 18.5Q36 19 38 23.5Q33 33.5 24 34.5Q15 33.5 10 23.5Z" fill="#E3BCAE" transform="translate(1.4 1.7)"/>
  <path d="M10 23.5Q12 19 16.5 18.5Q21 18 24 21Q27 18 31.5 18.5Q36 19 38 23.5Q33 33.5 24 34.5Q15 33.5 10 23.5Z" fill="#B06F5E" stroke="#35331F" stroke-width="2.2" stroke-linecap="round" stroke-linejoin="round"/>
  <path d="M10 23.5Q17 26 24 26Q31 26 38 23.5" stroke="#35331F" stroke-width="2.2" stroke-linecap="round"/>
  <path d="M16.5 30.4c1.9-1 4-1.4 5.8-1.2" stroke="#F7F4E8" stroke-width="1.6" stroke-linecap="round"/>
</svg>
