<svg viewBox="0 0 48 48" fill="none" xmlns="http://www.w3.org/2000/svg">
  <!-- pena — categoria portfolio: sensual intimista -->
  <path d="M27.5 8.5c5.5 5.5 8 14.5 5.5 23-1.6 5.3-4.4 8.6-7.4 10.6-2.6-4.6-4.9-12-3.9-20 .9-6.9 3-11 5.8-13.6z" fill="#E3BCAE"/>
  <path d="M26 7c5.5 5.5 8 14.5 5.5 23-1.6 5.3-4.4 8.6-7.4 10.6-2.6-4.6-4.9-12-3.9-20C21.1 13.7 23.2 9.6 26 7z" stroke="#35331F" stroke-width="2.2" stroke-linecap="round" stroke-linejoin="round"/>
  <path d="M24.6 40C23.6 30 24 18 26 7.5" stroke="#35331F" stroke-width="1.6" stroke-linecap="round"/>
  <path d="M25 24.5c2-.5 4-1.8 5.3-3.4M24.4 31c2.3-.4 4.6-1.7 6.2-3.4" stroke="#35331F" stroke-width="1.4" stroke-linecap="round"/>
  <path d="M23.9 40.6c-1.8 1.8-3.6 2.9-6.4 3.4 1-2.6 2.3-4.4 4.3-5.9" stroke="#35331F" stroke-width="1.8" stroke-linecap="round" stroke-linejoin="round"/>
</svg>
