<svg viewBox="0 0 48 48" fill="none" xmlns="http://www.w3.org/2000/svg">
  <!-- balão + confetes — categoria portfolio: aniversário -->
  <path d="M25.5 9.5c5.6.2 9.6 4.6 9.4 10.4-.2 6.2-5 11-9.9 11.7-4.8-1-9.2-6.1-9-12.3.2-5.8 4.4-10 9.5-9.8z" fill="#E3BCAE"/>
  <path d="M24 8c5.6.2 9.6 4.6 9.4 10.4-.2 6.2-5 11-9.9 11.7-4.8-1-9.2-6.1-9-12.3C14.7 12 18.9 7.8 24 8z" stroke="#35331F" stroke-width="2.2" stroke-linecap="round" stroke-linejoin="round"/>
  <path d="M23.5 30.1l-1.7 3 3.5.1z" stroke="#35331F" stroke-width="1.8" stroke-linejoin="round"/>
  <path d="M23.3 33.4c1.7 2.4-1.6 4 .1 6.6" stroke="#35331F" stroke-width="1.8" stroke-linecap="round"/>
  <circle cx="10.5" cy="31.5" r="1.6" fill="#7B785B"/>
  <circle cx="37" cy="34" r="1.6" fill="#6B2414"/>
  <path d="M12 40.5l2.6-1.4M34 42l2.4-1.8M9 12.5l2.2 1.6M36.5 10l-2 1.8" stroke="#7B785B" stroke-width="1.8" stroke-linecap="round"/>
</svg>
