<svg viewBox="0 0 48 48" fill="none" xmlns="http://www.w3.org/2000/svg">
  <!-- crachá com foto — categoria portfolio: corporativo -->
  <path d="M15 17c7-.7 14-.7 21 0 .4 8.3.4 15.9 0 23.7-7 .8-14 .8-21 0-.4-7.8-.4-15.4 0-23.7z" fill="#DFDCC6"/>
  <path d="M13 15.2c7.4-.8 14.8-.8 22.2 0 .4 8.7.4 16.7 0 24.9-7.4.8-14.8.8-22.2 0-.4-8.2-.4-16.2 0-24.9z" stroke="#35331F" stroke-width="2.2" stroke-linecap="round" stroke-linejoin="round"/>
  <path d="M16.5 7.5l7.6 7.3 7.4-7.5" stroke="#35331F" stroke-width="2.2" stroke-linecap="round" stroke-linejoin="round"/>
  <circle cx="24" cy="24.3" r="4.6" fill="#B06F5E" stroke="#35331F" stroke-width="2"/>
  <path d="M17.8 33.8c4.2-.5 8.3-.5 12.5 0M19.8 37.6c2.9-.3 5.6-.3 8.5 0" stroke="#35331F" stroke-width="2" stroke-linecap="round"/>
</svg>
