<svg viewBox="0 0 48 48" fill="none" xmlns="http://www.w3.org/2000/svg">
  <!-- balão com interrogação — sobre: FAQ -->
  <path d="M25.5 9.5c7 .3 12.3 5.7 12 12.4-.3 6.6-6 11.8-13 11.5-1.2 0-2.3-.2-3.4-.6-1.8 1.6-4.1 2.6-7.1 2.9 1-1.8 1.6-3.5 1.7-5.4-2.6-2.1-4.2-5.2-4-8.6.3-6.7 6.7-12.5 13.8-12.2z" fill="#DFDCC6"/>
  <path d="M24 7.5c7 .3 12.3 5.7 12 12.4-.3 6.6-6 11.8-13 11.5-1.2 0-2.3-.2-3.4-.6-1.8 1.6-4.1 2.6-7.1 2.9 1-1.8 1.6-3.5 1.7-5.4-2.6-2.1-4.2-5.2-4-8.6.3-6.7 6.7-12.5 13.8-12.2z" stroke="#35331F" stroke-width="2.2" stroke-linecap="round" stroke-linejoin="round"/>
  <path d="M20 16.4c.4-2.6 2.5-4.3 5-4 2.4.3 4 2.2 3.6 4.5-.3 1.8-1.6 2.7-2.9 3.6-1 .7-1.6 1.5-1.6 2.9v1" stroke="#35331F" stroke-width="2.4" stroke-linecap="round"/>
  <circle cx="24" cy="28.8" r="1.8" fill="#B06F5E"/>
</svg>
