<svg viewBox="0 0 48 48" fill="none" xmlns="http://www.w3.org/2000/svg">
  <!-- hortênsia (eco direto do logo) — sobre: a fotógrafa Lillia -->
  <path d="M25.5 10c3-2 7-1 8.5 2 3.5-.5 6.5 2 6 5.5 2.5 2 2.5 6-.5 7.5.5 3.5-2.5 6-6 5.5-1.5 3-5.5 4-8 2-2.5 2-6.5 1-8-2-3.5.5-6.5-2-6-5.5-2.5-1.5-2.5-5.5.5-7.5-.5-3.5 2.5-6 6-5.5 1.5-3 5.5-4 7.5-2z" fill="#DFDCC6"/>
  <path d="M24 8c3-2 7-1 8.5 2 3.5-.5 6.5 2 6 5.5 2.5 2 2.5 6-.5 7.5.5 3.5-2.5 6-6 5.5-1.5 3-5.5 4-8 2-2.5 2-6.5 1-8-2-3.5.5-6.5-2-6-5.5-2.5-1.5-2.5-5.5.5-7.5-.5-3.5 2.5-6 6-5.5 1.5-3 5.5-4 7.5-2z" stroke="#35331F" stroke-width="2.2" stroke-linejoin="round"/>
  <circle cx="20" cy="18" r="1.3" fill="#35331F"/>
  <circle cx="27.5" cy="15.5" r="1.3" fill="#35331F"/>
  <circle cx="24.5" cy="22.5" r="1.3" fill="#35331F"/>
  <path d="M24 30.5c-.5 4.5-.4 7.6.5 11" stroke="#35331F" stroke-width="2.2" stroke-linecap="round"/>
  <path d="M24.2 36c-4-.5-6.6-2.6-7.4-6.1 3.9-.3 6.7 1.9 7.4 6.1z" fill="#B06F5E" stroke="#35331F" stroke-width="1.6" stroke-linejoin="round"/>
</svg>
