<svg viewBox="0 0 48 48" fill="none" xmlns="http://www.w3.org/2000/svg">
  <!-- balão de fala com coração — sobre: depoimentos -->
  <path d="M25.5 10.5c7.7 0 13.7 4.7 13.7 10.8 0 6.1-6 10.8-13.7 10.8-1.4 0-2.8-.2-4.1-.5-2 1.8-4.6 2.9-8 3.2 1.2-2 1.8-4 1.9-6-3-2-4.8-4.6-4.8-7.5 0-6.1 7.3-10.8 15-10.8z" fill="#DFDCC6"/>
  <path d="M24 8.5c7.7 0 13.7 4.7 13.7 10.8 0 6.1-6 10.8-13.7 10.8-1.4 0-2.8-.2-4.1-.5-2 1.8-4.6 2.9-8 3.2 1.2-2 1.8-4 1.9-6-3-2-4.8-4.6-4.8-7.5C9 13.2 16.3 8.5 24 8.5z" stroke="#35331F" stroke-width="2.2" stroke-linecap="round" stroke-linejoin="round"/>
  <path d="M24 25.4c-3-2.2-5-4.1-5-6.4 0-1.8 1.4-3 2.8-3 1 0 1.8.4 2.2 1.3.4-.9 1.2-1.3 2.2-1.3 1.4 0 2.8 1.2 2.8 3 0 2.3-2.1 4.2-5 6.4z" fill="#B06F5E" stroke="#35331F" stroke-width="1.6" stroke-linejoin="round"/>
  <path d="M31 38.5l2.7 1.5-.5-3 2.2-2.1-3-.4-1.4-2.8-1.4 2.8-3 .4 2.2 2.1-.5 3z" fill="#7B785B"/>
</svg>
