<svg viewBox="0 0 48 48" fill="none" xmlns="http://www.w3.org/2000/svg">
  <!-- câmera com folha (eco do logo) — serviço: ensaio fotográfico -->
  <path d="M10.5 19.5h29l-1 19h-27z" fill="#E3BCAE"/>
  <path d="M9 18.6c.2-1.5 1.3-2.4 2.8-2.4h4.4l2.4-3.4c.5-.7 1.2-1 2-1h6.6c.8 0 1.6.3 2 1l2.4 3.4h4.6c1.5 0 2.6 1 2.7 2.5.3 6-.1 12.2-.7 18-.1 1.4-1.3 2.4-2.7 2.4H12.4c-1.4 0-2.6-1-2.7-2.4-.6-6-.9-12.1-.7-18.1z" stroke="#35331F" stroke-width="2.2" stroke-linecap="round" stroke-linejoin="round"/>
  <circle cx="24.2" cy="28.3" r="6.8" fill="#B06F5E" stroke="#35331F" stroke-width="2.2"/>
  <circle cx="35.4" cy="22.4" r="1.4" fill="#35331F"/>
  <path d="M17.5 11.5c-1.6-2.4-3.8-3.7-6.9-3.9.9 2.9 2.9 4.4 6.9 3.9z" fill="#DFDCC6" stroke="#35331F" stroke-width="1.6" stroke-linejoin="round"/>
</svg>
