<svg viewBox="0 0 48 48" fill="none" xmlns="http://www.w3.org/2000/svg">
  <!-- cabide com coração — serviço: consultoria de imagem -->
  <path d="M24 19.5L11.2 28.4c-1.1.8-.6 2.4.7 2.4h24.2c1.3 0 1.8-1.6.7-2.4z" fill="#DFDCC6"/>
  <path d="M24 8.3c1.8 0 3.2 1.3 3.2 3 0 1.4-.9 2.3-2.1 2.8-.8.3-1.1.8-1.1 1.6v2.2" stroke="#35331F" stroke-width="2.2" stroke-linecap="round"/>
  <path d="M24 18.2L9.9 28c-1.2.8-.7 2.6.8 2.6h26.6c1.5 0 2-1.8.8-2.6z" stroke="#35331F" stroke-width="2.2" stroke-linecap="round" stroke-linejoin="round"/>
  <path d="M24 30.8v3.4" stroke="#35331F" stroke-width="2" stroke-linecap="round"/>
  <path d="M24 41.2c-2.6-2-4.3-3.7-4.3-5.8 0-1.6 1.2-2.7 2.5-2.7.9 0 1.6.4 2 1.2.4-.8 1.1-1.2 2-1.2 1.3 0 2.5 1.1 2.5 2.7 0 2.1-1.9 3.8-4.7 5.8z" fill="#B06F5E" stroke="#35331F" stroke-width="1.8" stroke-linecap="round" stroke-linejoin="round"/>
</svg>
