<svg width="62" height="62" viewBox="0 0 62 62" fill="none" xmlns="http://www.w3.org/2000/svg">
<g clip-path="url(#clip0_5_350)">
<path d="M60.4502 15.8666H41.0763L39.6517 6.84359C39.5771 6.37155 39.1702 6.0238 38.6923 6.0238H23.1509C22.6731 6.0238 22.2659 6.37155 22.1915 6.84359L20.7667 15.8666H15.8335V11.6574C15.8335 11.121 15.3985 10.6861 14.8621 10.6861H7.60946C7.07304 10.6861 6.63809 11.121 6.63809 11.6574V15.8665H1.39291C0.856494 15.8665 0.421539 16.3015 0.421539 16.8379V27.7168V60.8718C0.421539 61.4082 0.856494 61.8431 1.39291 61.8431H60.4501C60.9865 61.8431 61.4214 61.4082 61.4214 60.8718V27.7169V16.838C61.4214 16.3013 60.9866 15.8666 60.4502 15.8666ZM23.9808 7.96642H37.8623L39.1098 15.8666H22.7334L23.9808 7.96642ZM8.58083 12.6288H13.8907V15.8666H8.58083V12.6288ZM59.4788 59.9004H2.36428V28.6882H18.794C16.3146 31.5711 14.9269 35.259 14.9269 39.1138C14.9269 41.7014 15.5506 44.2359 16.7382 46.5104C15.324 47.31 14.4088 48.8201 14.4088 50.5108C14.4088 53.046 16.4712 55.1084 19.0064 55.1084C20.6037 55.1084 22.0704 54.2628 22.8988 52.9521C25.33 54.3653 28.0806 55.1084 30.9215 55.1084C39.741 55.1084 46.9161 47.9332 46.9161 39.1138C46.9161 35.2589 45.5284 31.571 43.049 28.6882H59.4787V59.9004H59.4788ZM18.9597 46.4896C18.9585 46.4877 18.9573 46.4859 18.9561 46.484C18.9557 46.4834 18.9553 46.4826 18.9549 46.482C17.5906 44.2715 16.8695 41.7235 16.8695 39.1138C16.8695 35.0144 18.6546 31.1288 21.7669 28.4535L21.7673 28.4531C24.3115 26.2663 27.5625 25.0619 30.9214 25.0619C34.2801 25.0619 37.5311 26.2663 40.0755 28.4531L40.0758 28.4535C43.1883 31.1289 44.9732 35.0145 44.9732 39.1138C44.9732 46.862 38.6695 53.1658 30.9212 53.1658C28.0899 53.1659 25.3607 52.3273 23.0285 50.7411C23.0283 50.741 23.0279 50.7407 23.0276 50.7405C23.0254 50.7389 23.0233 50.7374 23.021 50.7359C21.3971 49.6293 19.9928 48.1612 18.9597 46.4896ZM21.2813 51.8761C20.8085 52.6581 19.9469 53.1657 19.0064 53.1657C17.5425 53.1657 16.3514 51.9747 16.3514 50.5106C16.3514 49.5161 16.8993 48.6296 17.7416 48.175C18.713 49.5828 19.9183 50.8429 21.2813 51.8761ZM59.4788 26.7455H41.0628C38.2095 24.4043 34.623 23.1193 30.9215 23.1193C27.22 23.1193 23.6333 24.4045 20.7802 26.7455H2.36428V17.8092H7.60946H14.8621H21.5967H40.2424C40.2433 17.8092 40.2442 17.8094 40.2453 17.8094C40.2458 17.8094 40.2464 17.8092 40.2468 17.8092H59.4789V26.7455H59.4788Z" fill="white"/>
<path d="M30.9215 28.2997C24.9585 28.2997 20.1073 33.151 20.1073 39.1139C20.1073 45.0768 24.9586 49.928 30.9215 49.928C36.8844 49.928 41.7357 45.0768 41.7357 39.1139C41.7357 33.151 36.8845 28.2997 30.9215 28.2997ZM30.9215 47.9853C26.0297 47.9853 22.0499 44.0056 22.0499 39.1137C22.0499 34.2219 26.0297 30.2422 30.9215 30.2422C35.8132 30.2422 39.7931 34.222 39.7931 39.1137C39.7931 44.0055 35.8134 47.9853 30.9215 47.9853Z" fill="white"/>
<path d="M35.8735 42.5608C35.4883 42.1875 34.8734 42.1969 34.5 42.5821C33.551 43.5609 32.2802 44.1001 30.9216 44.1001C30.3852 44.1001 29.9502 44.5351 29.9502 45.0715C29.9502 45.6079 30.3852 46.0429 30.9216 46.0429C32.8103 46.0429 34.5765 45.294 35.8948 43.9344C36.2681 43.5491 36.2587 42.9342 35.8735 42.5608Z" fill="white"/>
<path d="M30.9215 32.1849C30.3851 32.1849 29.9501 32.6199 29.9501 33.1563C29.9501 33.6927 30.3851 34.1277 30.9215 34.1277C33.6708 34.1277 35.9077 36.3644 35.9077 39.1139C35.9077 39.5552 35.8498 39.9927 35.7358 40.4145C35.5957 40.9323 35.902 41.4656 36.4199 41.6057C36.5049 41.6287 36.5901 41.6397 36.6741 41.6397C37.1021 41.6397 37.4941 41.3546 37.6111 40.9217C37.77 40.3348 37.8505 39.7264 37.8505 39.1139C37.8504 35.2933 34.7421 32.1849 30.9215 32.1849Z" fill="white"/>
<path d="M54.7516 31.4078C54.2151 31.4078 53.7802 31.8428 53.7802 32.3792V55.6912C53.7802 56.2276 54.2151 56.6626 54.7516 56.6626C55.288 56.6626 55.7229 56.2276 55.7229 55.6912V32.3792C55.7229 31.8425 55.2881 31.4078 54.7516 31.4078Z" fill="white"/>
<path d="M54.7516 18.9749C54.2151 18.9749 53.7802 19.4098 53.7802 19.9462V24.0905C53.7802 24.627 54.2151 25.0619 54.7516 25.0619C55.288 25.0619 55.7229 24.627 55.7229 24.0905V19.9462C55.7229 19.4098 55.2881 18.9749 54.7516 18.9749Z" fill="white"/>
<path d="M47.9909 5.86121H43.9615C43.4251 5.86121 42.9902 6.29616 42.9902 6.83258C42.9902 7.36899 43.4251 7.80395 43.9615 7.80395H47.9909C48.5273 7.80395 48.9622 7.36899 48.9622 6.83258C48.9622 6.29616 48.5273 5.86121 47.9909 5.86121Z" fill="white"/>
<path d="M46.0874 12.0067L43.5232 9.4425C43.1438 9.06311 42.5287 9.06311 42.1496 9.4425C41.7702 9.8219 41.7702 10.4369 42.1496 10.8161L44.7138 13.3803C44.9034 13.5699 45.152 13.6649 45.4006 13.6649C45.6492 13.6649 45.8977 13.57 46.0874 13.3803C46.4668 13.0009 46.4668 12.3858 46.0874 12.0067Z" fill="white"/>
<path d="M46.1136 0.284422C45.7342 -0.0949701 45.1191 -0.0949701 44.74 0.284422L42.1758 2.84861C41.7964 3.228 41.7964 3.84305 42.1758 4.22232C42.3654 4.41196 42.6139 4.5069 42.8626 4.5069C43.1112 4.5069 43.3598 4.41208 43.5494 4.22232L46.1136 1.65813C46.493 1.27886 46.493 0.663814 46.1136 0.284422Z" fill="white"/>
</g>
<defs>
<clipPath id="clip0_5_350">
<rect width="61.8431" height="61.8431" fill="white"/>
</clipPath>
</defs>
</svg>
