<svg width="62" height="62" viewBox="0 0 62 62" fill="none" xmlns="http://www.w3.org/2000/svg">
<g clip-path="url(#clip0_5_164)">
<path d="M15.4285 19.462H7.16559C6.63074 19.462 6.19724 19.8954 6.19724 20.4304V28.6933C6.19724 29.2282 6.63062 29.6617 7.16559 29.6617H15.4285C15.9634 29.6617 16.3969 29.2283 16.3969 28.6933V20.4304C16.3968 19.8955 15.9634 19.462 15.4285 19.462ZM14.4602 27.725H8.13382V21.3986H14.4602V27.725Z" fill="#EAEAEA"/>
<path d="M27.823 19.462H19.5601C19.0252 19.462 18.5917 19.8954 18.5917 20.4304V28.6933C18.5917 29.2282 19.0251 29.6617 19.5601 29.6617H27.823C28.3578 29.6617 28.7913 29.2283 28.7913 28.6933V20.4304C28.7912 19.8954 28.3578 19.462 27.823 19.462ZM26.8546 27.725H20.5283V21.3986H26.8546V27.725Z" fill="#EAEAEA"/>
<path d="M15.4285 31.8564H7.16559C6.63074 31.8564 6.19724 32.2898 6.19724 32.8248V41.0877C6.19724 41.6226 6.63062 42.0561 7.16559 42.0561H15.4285C15.9634 42.0561 16.3969 41.6227 16.3969 41.0877V32.8248C16.3968 32.2901 15.9634 31.8564 15.4285 31.8564ZM14.4602 40.1195H8.13382V33.7931H14.4602V40.1195Z" fill="#EAEAEA"/>
<path d="M47.3829 26.2474V8.03595C47.3829 7.5011 46.9495 7.06759 46.4146 7.06759H42.2185V1.83871C42.2185 1.30387 41.7852 0.870361 41.2502 0.870361H37.1187C36.5838 0.870361 36.1503 1.30375 36.1503 1.83871V7.06759H26.7254V1.83871C26.7254 1.30387 26.292 0.870361 25.757 0.870361H21.6258C21.0909 0.870361 20.6574 1.30375 20.6574 1.83871V7.06759H11.2325V1.83871C11.2325 1.30387 10.7991 0.870361 10.2641 0.870361H6.13261C5.59777 0.870361 5.16426 1.30375 5.16426 1.83871V7.06759H0.968352C0.433385 7.06759 0 7.50098 0 8.03595V45.2192C0 45.7541 0.433385 46.1876 0.968352 46.1876H27.0646C27.6779 50.1278 29.6242 53.7435 32.6053 56.4452C35.827 59.3649 39.9976 60.9728 44.3489 60.9728C53.9952 60.9728 61.8431 53.1249 61.8431 43.4786C61.8431 34.9588 55.6849 27.6979 47.3829 26.2474ZM38.0871 8.03595V2.80706H40.282V8.03595V13.2648H38.0871V8.03595ZM22.594 8.03595V2.80706H24.7888V8.03595V13.2648H22.594V8.03595ZM7.10096 8.03595V2.80706H9.29579V8.03595V13.2648H7.10096V8.03595ZM27.823 31.8565H19.5601C19.0252 31.8565 18.5917 32.2899 18.5917 32.8249V41.0878C18.5917 41.6227 19.0251 42.0562 19.5601 42.0562H26.9143C26.8761 42.528 26.8546 43.0022 26.8546 43.4787C26.8546 43.735 26.8616 43.9929 26.873 44.251H1.93658V9.00418H5.16426V14.2331C5.16426 14.7679 5.59765 15.2014 6.13261 15.2014H10.2641C10.799 15.2014 11.2325 14.768 11.2325 14.2331V9.00418H20.6574V14.2331C20.6574 14.7679 21.0908 15.2014 21.6258 15.2014H25.7573C26.2921 15.2014 26.7256 14.768 26.7256 14.2331V9.00418H36.1505V14.2331C36.1505 14.7679 36.5839 15.2014 37.1189 15.2014H41.2504C41.7853 15.2014 42.2188 14.768 42.2188 14.2331V9.00418H45.4465V26.0185C45.0806 25.9958 44.7139 25.9843 44.349 25.9843C43.2846 25.9843 42.2254 26.0818 41.1858 26.2716V20.4304C41.1858 19.8956 40.7524 19.4621 40.2175 19.4621H31.9545C31.4197 19.4621 30.9862 19.8954 30.9862 20.4304V28.6933C30.9862 29.2282 31.4196 29.6617 31.9545 29.6617H33.621C32.0181 30.9074 30.6346 32.4264 29.5413 34.1599C29.2707 34.589 29.0223 35.0294 28.7913 35.4776V32.8248C28.7912 32.29 28.3578 31.8565 27.823 31.8565ZM26.8546 33.7931V40.1195H20.5283V33.7931H26.8546ZM39.2491 21.3986V26.7413C38.3912 27.0029 37.5505 27.3323 36.7388 27.725H32.9227V21.3986H39.2491ZM44.3489 59.0362C36.3602 59.0362 29.7094 53.0543 28.8775 45.1215C28.8773 45.1203 28.8772 45.1192 28.8771 45.1181C28.8202 44.5739 28.7912 44.0221 28.7912 43.4786C28.7912 37.5502 32.0871 32.2171 37.3928 29.5599C37.3932 29.5596 37.3937 29.5595 37.3942 29.5594C38.3747 29.0685 39.4056 28.6822 40.4583 28.4113L40.4587 28.4112C41.722 28.0858 43.031 27.9209 44.3487 27.9209C44.9971 27.9209 45.6518 27.9616 46.2945 28.0417H46.2948C54.0548 29.0095 59.9064 35.6459 59.9064 43.4784C59.9065 52.0571 52.9274 59.0362 44.3489 59.0362Z" fill="#EAEAEA"/>
<path d="M57.7909 38.6962C57.6112 38.1924 57.0568 37.9298 56.5536 38.1094C56.0499 38.2891 55.7872 38.8432 55.9668 39.3467C56.4392 40.6712 56.6788 42.0612 56.6788 43.4786C56.6788 44.0135 57.1122 44.447 57.6472 44.447C58.182 44.447 58.6155 44.0136 58.6155 43.4786C58.6154 41.8389 58.3381 40.2299 57.7909 38.6962Z" fill="#EAEAEA"/>
<path d="M56.0829 35.3716C54.192 32.6427 51.4019 30.6455 48.2265 29.7476C47.7116 29.6018 47.1767 29.9011 47.0312 30.4159C46.8857 30.9306 47.1848 31.4657 47.6995 31.6112C50.4436 32.3871 52.8556 34.1144 54.491 36.4746C54.6791 36.746 54.9811 36.8914 55.2879 36.8914C55.478 36.8914 55.6703 36.8354 55.8385 36.7189C56.2779 36.4144 56.3874 35.8111 56.0829 35.3716Z" fill="#EAEAEA"/>
<path d="M44.3489 32.5066C38.299 32.5066 33.377 37.4284 33.377 43.4784C33.377 49.5284 38.2989 54.4504 44.3489 54.4504C50.3989 54.4504 55.3207 49.5284 55.3207 43.4784C55.3207 37.4284 50.3987 32.5066 44.3489 32.5066ZM44.3489 52.5138C39.3669 52.5138 35.3137 48.4605 35.3137 43.4785C35.3137 38.4966 39.367 34.4434 44.3489 34.4434C49.3307 34.4434 53.384 38.4967 53.384 43.4785C53.384 48.4608 49.3309 52.5138 44.3489 52.5138Z" fill="#EAEAEA"/>
<path d="M50.0296 43.2181H45.3171V38.5056C45.3171 37.9707 44.8837 37.5372 44.3487 37.5372C43.8139 37.5372 43.3804 37.9706 43.3804 38.5056V44.1863C43.3804 44.7212 43.8138 45.1547 44.3487 45.1547H50.0295C50.5643 45.1547 50.9978 44.7213 50.9978 44.1863C50.998 43.6516 50.5646 43.2181 50.0296 43.2181Z" fill="#EAEAEA"/>
</g>
<defs>
<clipPath id="clip0_5_164">
<rect width="61.8431" height="61.8431" fill="white"/>
</clipPath>
</defs>
</svg>
