<svg width="62" height="62" viewBox="0 0 62 62" fill="none" xmlns="http://www.w3.org/2000/svg">
<g clip-path="url(#clip0_5_890)">
<path d="M49.7644 34.4097V0.984799C49.7644 0.440762 49.3235 0 48.7796 0H8.86303C8.31912 0 7.87823 0.440762 7.87823 0.984799V51.4057V57.7083C7.87823 58.2523 8.31912 58.6931 8.86303 58.6931H32.4499V60.8596C32.4499 61.4036 32.8908 61.8444 33.4347 61.8444H52.9814C53.5253 61.8444 53.9662 61.4036 53.9662 60.8596V38.6513C53.9661 36.3256 52.0849 34.432 49.7644 34.4097ZM32.4499 55.0822V56.7235H9.84783V52.3904H32.4499V55.0822ZM32.4499 48.7797V50.4209H9.84783V1.9696H47.7948V34.4089H46.4657H40.9349V31.4636C43.1546 29.9141 44.5122 27.3417 44.5122 24.6196C44.5122 20.0221 40.7718 16.2817 36.1743 16.2817C31.5768 16.2817 27.8364 20.0221 27.8364 24.6196C27.8364 27.8153 29.6266 30.6741 32.4498 32.079V38.7526H29.4529C27.1135 38.7526 25.2102 40.6558 25.2102 42.995V43.7191C25.2102 46.0585 27.1135 47.9618 29.4529 47.9618H32.4498V48.7797H32.4499ZM36.6924 19.9299C34.3531 19.9299 32.4498 21.8331 32.4498 24.1726V29.7868C30.8085 28.6094 29.8059 26.7092 29.8059 24.6196C29.8059 21.1081 32.6627 18.2513 36.1742 18.2513C39.6857 18.2513 42.5425 21.1081 42.5425 24.6196C42.5425 26.2169 41.9606 27.7048 40.9349 28.8518V24.1724C40.935 21.8331 39.0317 19.9299 36.6924 19.9299ZM51.9965 59.8748H34.4195V57.7083V55.0822V51.4057V48.7796V46.977C34.4195 46.4329 33.9786 45.9922 33.4347 45.9922H29.453C28.1997 45.9922 27.18 44.9724 27.18 43.7191V42.995C27.18 41.7417 28.1997 40.7221 29.453 40.7221H33.4347C33.9786 40.7221 34.4195 40.2813 34.4195 39.7373V31.4429V31.4284C34.4195 31.4271 34.4195 31.4256 34.4195 31.4243V24.1724C34.4195 22.9191 35.4392 21.8994 36.6924 21.8994C37.9457 21.8994 38.9654 22.9191 38.9654 24.1724V30.9294V35.3937V39.7375C38.9654 40.2816 39.4063 40.7223 39.9502 40.7223C40.4941 40.7223 40.935 40.2816 40.935 39.7375V36.3785H45.4811V39.7375C45.4811 40.2816 45.9219 40.7223 46.4659 40.7223C47.0098 40.7223 47.4507 40.2816 47.4507 39.7375V36.3785H48.7797H49.7237C50.977 36.3785 51.9967 37.3982 51.9967 38.6515V59.8748H51.9965Z" fill="white"/>
</g>
<defs>
<clipPath id="clip0_5_890">
<rect width="61.8444" height="61.8444" fill="white"/>
</clipPath>
</defs>
</svg>
