<svg width="73" height="73" viewBox="0 0 73 73" fill="none" xmlns="http://www.w3.org/2000/svg">
<g clip-path="url(#clip0_5_962)">
<path d="M72.3451 15.6321C72.0436 14.1089 71.364 12.6692 70.3725 11.4588C70.1711 11.2047 69.9604 10.9786 69.7301 10.7493C67.9661 8.9759 65.5122 7.95874 62.9976 7.95874H9.52483C6.98215 7.95874 4.59074 8.95026 2.79113 10.7503C2.56337 10.9775 2.35217 11.2058 2.1431 11.468C1.15583 12.6733 0.479188 14.111 0.184989 15.6364C0.0620409 16.2354 0 16.8561 0 17.484V55.0396C0 56.3461 0.265444 57.6184 0.791659 58.8279C1.24705 59.902 1.938 60.9203 2.79057 61.7724C3.0053 61.9862 3.21862 62.1833 3.44639 62.3755C5.15095 63.7872 7.30935 64.564 9.52483 64.564H62.9976C65.2274 64.564 67.3836 63.7842 69.0837 62.36C69.3109 62.1761 69.5215 61.983 69.7321 61.7724C70.5562 60.9492 71.2112 60.0033 71.682 58.9602L71.7441 58.8114C72.2605 57.6249 72.5227 56.3567 72.5227 55.0397V17.484C72.5227 16.8643 72.4629 16.2395 72.3451 15.6321ZM4.93253 14.0376C5.06724 13.8404 5.2392 13.638 5.45861 13.4169C6.54772 12.3284 7.99208 11.7294 9.52469 11.7294H62.9974C64.5435 11.7294 65.9883 12.3294 67.0653 13.419C67.2513 13.607 67.429 13.8157 67.5839 14.0242L67.9928 14.5737L39.4512 39.449C38.5713 40.2204 37.4384 40.6449 36.2609 40.6449C35.095 40.6449 33.9631 40.2214 33.0728 39.45L4.55958 14.5808L4.93253 14.0376ZM3.78974 55.3712C3.7743 55.2689 3.77075 55.1553 3.77075 55.0396V18.2616L25.9199 37.5837L3.99427 56.7004L3.78974 55.3712ZM65.851 60.0351C64.9938 60.5298 64.0065 60.7921 62.9976 60.7921H9.52483C8.51532 60.7921 7.52848 60.5298 6.6718 60.0351L5.77547 59.5156L28.4297 39.7731L30.9125 41.9326C32.4018 43.2256 34.301 43.9383 36.2612 43.9383C38.2287 43.9383 40.131 43.2256 41.6192 41.9326L44.101 39.7721L66.7475 59.5167L65.851 60.0351ZM68.7509 55.0396C68.7509 55.1533 68.7488 55.2658 68.7345 55.3659L68.5382 56.7076L46.6032 37.594L68.7509 18.271V55.0396Z" fill="white"/>
</g>
<defs>
<clipPath id="clip0_5_962">
<rect width="72.5227" height="72.5227" fill="white"/>
</clipPath>
</defs>
</svg>
